# xmcd
#
# Track frame offsets:
#	150
#	10721
#	21271
#	31591
#	43011
#	58931
#	73939
#	91650
#	104324
#	115257
#	129074
#	138878
#	150591
#	160772
#	171663
#	183481
#	196114
#	206183
#	218753
#	230208
#	239608
#
# Disc length: 3352 seconds
#
# Revision: 0
# Processed by: cddbd v1.5.2PL0 Copyright (c) Steve Scherf et al.
# Submitted via: EasyCDDAExtractor 16.0.1.1
#
DISCID=220d1615
DTITLE=Jan Howard - Count Your Blessings  Woman and Jan Howard
DYEAR=1968
DGENRE=Country
TTITLE0=Count Your Blessings  Woman
TTITLE1=The Minute You're Gone
TTITLE2=Promises  Promises
TTITLE3=The Day The World Stood Still
TTITLE4=The Last Thing On My Mind
TTITLE5=You Are My Treasure
TTITLE6=You'd Better Sit Down Kids
TTITLE7=Take Me To Your World
TTITLE8=Thanks A Lot For Tryin' Anyway
TTITLE9=But Not For Love My Dear
TTITLE10=It's Over
TTITLE11=When We Tried
TTITLE12=Until My Dreams Come True
TTITLE13=Happy State Of Mind
TTITLE14=I Hurt All Over
TTITLE15=My Son
TTITLE16=Son Of A Preacher Man
TTITLE17=When The Grass Grows Over Me
TTITLE18=Ribbon Of Darkness
TTITLE19=I Still Believe In Love
TTITLE20=Shame On Me
EXTD=
EXTT0=
EXTT1=
EXTT2=
EXTT3=
EXTT4=
EXTT5=
EXTT6=
EXTT7=
EXTT8=
EXTT9=
EXTT10=
EXTT11=
EXTT12=
EXTT13=
EXTT14=
EXTT15=
EXTT16=
EXTT17=
EXTT18=
EXTT19=
EXTT20=
PLAYORDER=
